<?xml version="1.0" encoding="utf-8"?><svg xmlns="http://www.w3.org/2000/svg" xmlns:xlink="http://www.w3.org/1999/xlink"><symbol viewBox="0 0 23 20" id="360" xmlns="http://www.w3.org/2000/svg"><path fill-rule="evenodd" clip-rule="evenodd" d="M21.759 2.634a1.163 1.163 0 1 1 0-2.325 1.163 1.163 0 0 1 0 2.325zM20.16 7.198c-.208.485-.516.936-.934 1.26a2.42 2.42 0 0 1-.838.423 3.031 3.031 0 0 1-.943.105 2.755 2.755 0 0 1-1.005-.222c-.484-.21-.881-.588-1.163-1.03a4.13 4.13 0 0 1-.502-1.182 7.23 7.23 0 0 1-.212-1.522c-.023-.681.002-1.369.143-2.038a4.62 4.62 0 0 1 .519-1.393c.229-.384.535-.725.912-.966a2.526 2.526 0 0 1 1.166-.392c.419-.037.848.004 1.246.146.47.164.878.484 1.177.88.381.496.602 1.097.726 1.706.149.745.171 1.511.128 2.268-.044.667-.157 1.339-.42 1.957zM18.698 3.83c-.031-.405-.082-.813-.211-1.2-.081-.243-.205-.481-.408-.642a.837.837 0 0 0-.628-.155.746.746 0 0 0-.463.241c-.18.193-.284.443-.359.693-.119.403-.159.822-.183 1.24-.023.474-.02.949.015 1.422.03.384.08.77.205 1.137.08.232.193.461.376.63a.758.758 0 0 0 .507.195.812.812 0 0 0 .493-.136c.158-.109.271-.272.355-.442.111-.239.174-.497.221-.755.065-.384.093-.773.101-1.163.012-.355.002-.71-.021-1.065zm-5.251 4.095a2.788 2.788 0 0 1-1.141.858c-.503.203-1.059.235-1.593.184-.554-.053-1.106-.242-1.535-.605-.432-.362-.727-.868-.896-1.403-.21-.66-.242-1.363-.204-2.05.042-.66.184-1.319.468-1.919.247-.53.6-1.01 1.042-1.392a4.634 4.634 0 0 1 1.475-.852c.751-.274 1.554-.379 2.349-.386.029.489.066.978.095 1.466.005.025-.007.059-.036.059-.593.018-1.193.082-1.754.287a2.758 2.758 0 0 0-1.132.744c-.185.209-.33.454-.428.715.277-.115.574-.169.873-.185.422-.012.851.021 1.258.14.436.131.852.361 1.159.703.178.2.321.431.415.681.093.247.151.506.178.768a3.02 3.02 0 0 1-.057 1.038 2.88 2.88 0 0 1-.536 1.149zm-1.457-2.64a.934.934 0 0 0-.548-.335c-.308-.073-.628-.064-.94-.026-.196.026-.394.06-.576.142 0 .109-.011.217-.012.326.006.196.011.393.035.588.035.312.101.628.252.906.116.216.3.403.532.489.187.066.39.078.586.051.252-.035.473-.194.627-.392.191-.249.277-.565.287-.875 0-.305-.054-.626-.243-.874zM5.421 8.778a4.344 4.344 0 0 1-1.077.204 6.69 6.69 0 0 1-2.159-.205A4.803 4.803 0 0 1 1.4 8.52c.114-.501.232-1 .349-1.501.002-.031.043-.038.066-.025.218.09.44.168.664.239.249.085.508.135.77.159.298.026.599.036.897.005.233-.025.467-.074.674-.187a1 1 0 0 0 .498-.66 1.216 1.216 0 0 0-.038-.655 1.02 1.02 0 0 0-.537-.544c-.312-.146-.662-.172-1.001-.189-.274-.002-.548 0-.822-.001-.032.006-.059-.024-.053-.054 0-.467-.001-.933.001-1.4-.005-.03.022-.052.051-.048.293-.002.586.001.879-.002.305-.016.625-.065.88-.246a.817.817 0 0 0 .307-.444c.04-.161.05-.331.017-.493a.83.83 0 0 0-.5-.567c-.299-.128-.634-.12-.951-.079a3.017 3.017 0 0 0-.915.286 3.48 3.48 0 0 0-.351.189c-.029.016-.059.045-.093.028-.032-.043-.049-.093-.073-.14L1.539.993c.282-.178.579-.335.891-.454C2.968.335 3.541.21 4.117.229c.515.01 1.038.087 1.506.311.434.201.805.55 1.011.985.173.364.24.773.226 1.175a1.955 1.955 0 0 1-.976 1.562c.308.135.594.33.813.588.161.187.286.404.369.637.123.35.15.727.12 1.095-.04.5-.202 1.003-.527 1.391-.317.39-.767.649-1.238.805zm-.452 2.125l-.01 1.159s-2.477.446-2.477 1.499c0 1.563 6.59 1.623 6.59 1.623v-1.777l3.842 3.169-3.842 3.1v-1.639s-7.206-.555-8.089-3.016c-1.241-3.456 3.986-4.118 3.986-4.118zm14.378 2.547c0-.822-2.144-1.5-2.144-1.5l.004-1.047s5.269.677 3.502 4.256c-1.268 2.567-6.805 2.754-6.805 2.754v-2.784s5.443-.113 5.443-1.679z"/></symbol><symbol viewBox="0 0 20 20" id="cart" xmlns="http://www.w3.org/2000/svg"><path d="M6 16c-1.1 0-1.99.9-1.99 2S4.9 20 6 20s2-.9 2-2-.9-2-2-2zM0 0v2h2l3.6 7.59-1.35 2.45c-.16.28-.25.61-.25.96 0 1.1.9 2 2 2h12v-2H6.42c-.14 0-.25-.11-.25-.25l.03-.12.9-1.63h7.45c.75 0 1.41-.41 1.75-1.03l3.58-6.49A1.003 1.003 0 0 0 19 2H4.21l-.94-2H0zm16 16c-1.1 0-1.99.9-1.99 2s.89 2 1.99 2 2-.9 2-2-.9-2-2-2z"/></symbol><symbol viewBox="0 0 18 14" id="chat" xmlns="http://www.w3.org/2000/svg"><path fill-rule="evenodd" clip-rule="evenodd" d="M16.147 9.26c-.734.922-1.739 1.652-3.006 2.185-1.262.537-2.644.804-4.133.804-.672 0-1.361-.066-2.062-.189a9.808 9.808 0 0 1-3.256 1.501 9.65 9.65 0 0 1-1.009.189h-.037a.375.375 0 0 1-.242-.094.388.388 0 0 1-.135-.246.239.239 0 0 1-.012-.078c0-.029 0-.054.004-.078a.237.237 0 0 1 .025-.07l.028-.057s.013-.025.041-.066c.025-.04.041-.062.045-.057.004.004.02-.017.054-.058.028-.045.045-.061.045-.053.04-.045.131-.144.27-.291.14-.148.242-.263.304-.345v-.001c.062-.082.148-.196.262-.34.111-.143.21-.294.291-.45a6.14 6.14 0 0 0 .242-.517c-.967-.562-1.73-1.255-2.284-2.075C1.03 8.054.75 7.18.75 6.25c0-1.083.369-2.088 1.103-3.01.734-.923 1.734-1.653 3.006-2.186C6.129.517 7.507.25 9 .25c1.492 0 2.87.27 4.141.804 1.271.537 2.272 1.263 3.006 2.186.734.918 1.103 1.923 1.103 3.01 0 1.086-.369 2.087-1.103 3.01zM5.25 4.75v-1.5h7.5v1.5h-7.5zm0 2.25V5.5h7.5V7h-7.5zm5.25.75H5.25v1.5h5.25v-1.5z"/></symbol><symbol viewBox="0 0 21 19" id="comp" xmlns="http://www.w3.org/2000/svg"><path d="M10.087 0c-1.27 0-2.4.8-2.82 2h-6.18v2h1.95l-2.95 7c-.47 2 1 3 3.5 3s4.06-1 3.5-3l-2.95-7h3.12c.33.85.98 1.5 1.83 1.83V17h-9v2h20v-2h-9V5.82c.85-.32 1.5-.97 1.82-1.82h3.13l-2.95 7c-.47 2 1 3 3.5 3s4.06-1 3.5-3l-2.95-7h1.95V2h-6.17c-.43-1.2-1.56-2-2.83-2zm0 2a1 1 0 1 1 0 2 1 1 0 0 1 0-2zm-6.5 5.25l1.5 3.75h-3l1.5-3.75zm13 0l1.5 3.75h-3l1.5-3.75z"/></symbol><symbol viewBox="0 0 20 19" id="heart" xmlns="http://www.w3.org/2000/svg"><path d="M14.5 0c-1.74 0-3.41.81-4.5 2.09C8.91.81 7.24 0 5.5 0 2.42 0 0 2.42 0 5.5c0 3.78 3.4 6.86 8.55 11.54L10 18.35l1.45-1.32C16.6 12.36 20 9.28 20 5.5 20 2.42 17.58 0 14.5 0zm-4.4 15.55l-.1.1-.1-.1C5.14 11.24 2 8.39 2 5.5 2 3.5 3.5 2 5.5 2c1.54 0 3.04.99 3.57 2.36h1.87C11.46 2.99 12.96 2 14.5 2c2 0 3.5 1.5 3.5 3.5 0 2.89-3.14 5.74-7.9 10.05z"/></symbol><symbol viewBox="0 0 20 14" id="you_tube" xmlns="http://www.w3.org/2000/svg"><path fill-rule="evenodd" clip-rule="evenodd" d="M19.799 3.019s-.194-1.371-.794-1.977C18.244.25 17.393.246 17.002.2c-2.8-.2-6.999-.2-6.999-.2h-.008S5.798 0 2.998.202c-.391.046-1.242.05-2.003.842C.395 1.648.2 3.019.2 3.019S0 4.63 0 6.242v1.51c0 1.612.2 3.221.2 3.221s.195 1.371.795 1.976c.761.793 1.759.767 2.206.851 1.6.153 6.8.2 6.8.2s4.201-.006 7.001-.208c.391-.046 1.242-.05 2.003-.843.6-.603.794-1.976.794-1.976S20 9.362 20 7.752v-1.51c-.002-1.612-.201-3.223-.201-3.223zM7.911 9.758V4.153L13 7 7.911 9.758z"/></symbol></svg>